<svg width="81" height="114" viewBox="0 0 81 114" fill="none" xmlns="http://www.w3.org/2000/svg">
<path d="M0 57.186C0 50.9574 7.00817e-07 47.8494 0.526748 45.2583C1.545 40.2585 4.00139 35.6693 7.59102 32.0605C11.1806 28.4518 15.7454 25.9823 20.7187 24.9586C23.2898 24.429 26.3876 24.429 32.5831 24.429C32.9559 24.4114 33.3296 24.4283 33.6993 24.4795C34.6525 24.6749 35.3924 25.4251 35.5868 26.3833C35.6373 26.753 35.6541 27.1265 35.637 27.4992V81.243C35.637 87.4717 35.637 90.586 35.1102 93.1707C34.092 98.1706 31.6356 102.76 28.046 106.368C24.4564 109.977 19.8916 112.447 14.9182 113.47C12.3472 114 9.24944 114 3.05388 114C2.47697 114 2.18224 114 1.94395 113.95C1.47729 113.854 1.04891 113.623 0.712162 113.284C0.375414 112.945 0.14519 112.515 0.0501673 112.046C8.46821e-07 111.806 0 111.516 0 110.93V57.186ZM45.3567 3.07018C45.3567 2.49018 45.3567 2.19388 45.4069 1.95432C45.5027 1.48552 45.7332 1.05526 46.0698 0.716845C46.4064 0.37843 46.8344 0.146726 47.3007 0.0504335C47.5452 -6.51715e-07 47.8337 0 48.4169 0C54.6062 0 57.704 7.04556e-07 60.275 0.529559C65.2483 1.55324 69.8131 4.02274 73.4027 7.63152C76.9923 11.2403 79.4487 15.8294 80.467 20.8293C81 23.414 81 26.5346 81 32.757V38.9036C81 45.1322 81 48.2402 80.4733 50.8313C79.455 55.8311 76.9986 60.4203 73.409 64.029C69.8194 67.6378 65.2546 70.1073 60.2813 71.131C57.7102 71.6606 54.6062 71.6606 48.4106 71.6606C47.8337 71.6606 47.5452 71.6606 47.3007 71.6101C46.834 71.5146 46.4056 71.2831 46.0689 70.9446C45.7321 70.6061 45.5019 70.1754 45.4069 69.7063C45.3567 69.4667 45.3567 69.1704 45.3567 68.5904V3.07018Z" fill="black"/>
</svg>
