<svg width="456" height="402" viewBox="0 0 456 402" fill="none" xmlns="http://www.w3.org/2000/svg">
<g clip-path="url(#clip0_1213_2)">
<path d="M262.387 109.641H260.387V32.5977H405.044V34.5977H262.387V109.641Z" fill="#3F3D56"/>
<path d="M427.225 55.56C442.568 55.56 455.005 43.1225 455.005 27.78C455.005 12.4375 442.568 0 427.225 0C411.883 0 399.445 12.4375 399.445 27.78C399.445 43.1225 411.883 55.56 427.225 55.56Z" fill="#01FEE6"/>
<path d="M423.434 42.2376C422.955 42.2376 422.481 42.1259 422.052 41.9113C421.623 41.6967 421.25 41.3851 420.962 41.0013L413.384 30.896C413.14 30.5714 412.963 30.202 412.862 29.8089C412.762 29.4158 412.739 29.0067 412.797 28.605C412.854 28.2033 412.99 27.8168 413.197 27.4676C413.404 27.1184 413.677 26.8134 414.002 26.5699C414.326 26.3265 414.696 26.1493 415.089 26.0486C415.482 25.9479 415.891 25.9257 416.293 25.9831C416.695 26.0405 417.081 26.1764 417.43 26.3832C417.779 26.59 418.084 26.8635 418.328 27.1881L423.286 33.7987L436.021 14.6967C436.246 14.3587 436.535 14.0683 436.872 13.8421C437.21 13.6159 437.588 13.4585 437.986 13.3786C438.384 13.2988 438.794 13.2983 439.193 13.377C439.591 13.4557 439.97 13.6121 440.308 13.8374C440.646 14.0626 440.936 14.3522 441.162 14.6896C441.388 15.0271 441.545 15.4057 441.624 15.8039C441.704 16.2021 441.704 16.612 441.625 17.0103C441.546 17.4086 441.389 17.7874 441.163 18.125L426.006 40.8615C425.732 41.2726 425.363 41.6121 424.93 41.8514C424.498 42.0906 424.014 42.2227 423.52 42.2366C423.492 42.2371 423.463 42.2376 423.434 42.2376Z" fill="white" fill-opacity="0.8"/>
<path d="M164.387 296.686H162.387V373.729H307.044V371.729H164.387V296.686Z" fill="#3F3D56"/>
<path d="M329.225 401.56C344.568 401.56 357.005 389.122 357.005 373.78C357.005 358.438 344.568 346 329.225 346C313.883 346 301.445 358.438 301.445 373.78C301.445 389.122 313.883 401.56 329.225 401.56Z" fill="#6C63FF"/>
<path d="M325.434 388.238C324.955 388.238 324.481 388.126 324.052 387.911C323.623 387.697 323.25 387.385 322.962 387.001L315.384 376.896C315.14 376.571 314.963 376.202 314.862 375.809C314.762 375.416 314.739 375.007 314.797 374.605C314.854 374.203 314.99 373.817 315.197 373.468C315.404 373.118 315.677 372.813 316.002 372.57C316.326 372.327 316.696 372.149 317.089 372.049C317.482 371.948 317.891 371.926 318.293 371.983C318.695 372.04 319.081 372.176 319.43 372.383C319.779 372.59 320.084 372.863 320.328 373.188L325.286 379.799L338.021 360.697C338.246 360.359 338.535 360.068 338.872 359.842C339.21 359.616 339.588 359.458 339.986 359.379C340.384 359.299 340.794 359.298 341.193 359.377C341.591 359.456 341.97 359.612 342.308 359.837C342.646 360.063 342.936 360.352 343.162 360.69C343.388 361.027 343.545 361.406 343.624 361.804C343.704 362.202 343.704 362.612 343.625 363.01C343.546 363.409 343.389 363.787 343.163 364.125L328.006 386.861C327.732 387.273 327.363 387.612 326.93 387.851C326.498 388.091 326.014 388.223 325.52 388.237C325.492 388.237 325.463 388.238 325.434 388.238Z" fill="white"/>
<path d="M83.6291 153.709C83.6124 138.677 89.3554 124.21 99.6774 113.282L64.2541 64.5269C62.7959 62.5182 60.922 60.8474 58.76 59.6281C56.598 58.4089 54.1986 57.6699 51.7252 57.4614C49.2519 57.253 46.7627 57.5799 44.4271 58.4201C42.0915 59.2602 39.9644 60.5938 38.1906 62.3301C26.056 74.159 16.4225 88.3059 9.86199 103.931C3.30154 119.555 -0.051993 136.339 0.000609363 153.285C0.000708167 159.684 0.477792 166.075 1.42787 172.403C1.80059 174.905 2.7146 177.296 4.10616 179.408C5.49772 181.521 7.33334 183.304 9.485 184.634C11.6124 185.951 14.0014 186.788 16.4854 187.086C18.9694 187.385 21.4886 187.138 23.8673 186.362L85.0329 166.488C84.102 162.292 83.6313 158.007 83.6291 153.709Z" fill="#56A42A"/>
<path d="M86.8824 173.027L23.2926 193.689C20.9392 194.45 18.7768 195.707 16.952 197.377C15.1272 199.046 13.6826 201.089 12.716 203.365C11.7495 205.642 11.2836 208.1 11.35 210.572C11.4164 213.045 12.0134 215.474 13.1007 217.695C22.1564 236.067 35.5056 251.987 52.0181 264.106C68.5306 276.226 87.7201 284.188 107.962 287.319C110.427 287.698 112.945 287.539 115.343 286.853C117.741 286.167 119.963 284.971 121.855 283.346C123.745 281.726 125.262 279.715 126.301 277.453C127.341 275.191 127.878 272.731 127.877 270.242V210.849C118.459 208.406 109.79 203.675 102.639 197.077C95.4873 190.479 90.0752 182.218 86.8824 173.027Z" fill="#A4E276"/>
<path d="M278.114 210.136C277.04 207.586 275.43 205.298 273.393 203.427C271.356 201.555 268.94 200.144 266.309 199.29L196.956 176.756C192.907 186.277 186.428 194.567 178.167 200.796C169.907 207.025 160.154 210.974 149.887 212.248V284.507C149.888 287.281 150.489 290.021 151.649 292.541C152.808 295.061 154.498 297.3 156.604 299.106C158.709 300.911 161.18 302.24 163.847 303.002C166.515 303.763 169.315 303.939 172.056 303.518C194.589 300.032 215.951 291.169 234.332 277.677C252.714 264.186 267.574 246.465 277.655 226.014C278.867 223.555 279.535 220.865 279.614 218.125C279.694 215.385 279.182 212.66 278.114 210.136Z" fill="#0E2F4E"/>
<path d="M260.882 44.3944C258.907 42.4615 256.539 40.9768 253.939 40.0415C251.339 39.1062 248.568 38.7421 245.815 38.9742C243.062 39.2062 240.391 40.0289 237.984 41.3862C235.577 42.7435 233.491 44.6036 231.868 46.8397L184.453 112.101C189.908 117.569 194.232 124.058 197.179 131.197C200.126 138.336 201.638 145.986 201.628 153.709C201.628 155.146 201.559 156.566 201.458 157.977L276.827 182.466C279.492 183.326 282.312 183.595 285.092 183.254C287.871 182.913 290.543 181.97 292.921 180.491C295.298 179.011 297.325 177.032 298.86 174.689C300.394 172.347 301.399 169.698 301.806 166.927C302.864 159.882 303.395 152.768 303.395 145.644C303.453 126.78 299.72 108.096 292.417 90.7033C285.114 73.3102 274.39 57.5621 260.882 44.3944Z" fill="#0DCBFD"/>
<path d="M142.628 94.708C152.779 94.6965 162.759 97.3173 171.595 102.314L200.535 62.4819C202.01 60.4533 203.027 58.1288 203.517 55.6688C204.006 53.2087 203.956 50.6717 203.37 48.2329C202.802 45.8406 201.723 43.6 200.205 41.6656C198.687 39.7312 196.768 38.1493 194.579 37.0288C176.712 27.9419 156.955 23.1914 136.91 23.1622C116.864 23.1331 97.094 27.826 79.2002 36.8608C76.9436 37.9994 74.9615 39.615 73.3913 41.5957C71.8211 43.5763 70.7002 45.8747 70.1064 48.3315C69.5208 50.7533 69.4688 53.2734 69.9539 55.7173C70.439 58.1612 71.4498 60.4704 72.916 62.4848L105.746 107.672C116.199 99.2658 129.214 94.691 142.628 94.708Z" fill="#38F209"/>
</g>
<defs>
<clipPath id="clip0_1213_2">
<rect width="456" height="402" fill="white"/>
</clipPath>
</defs>
</svg>
