<svg width="32" height="55" viewBox="0 0 32 55" fill="none" xmlns="http://www.w3.org/2000/svg">
<path d="M0.253906 28.3812C0.253906 25.7883 0.253907 24.4918 0.457299 23.4147C1.26097 19.1588 4.32842 15.8329 8.25362 14.9617C9.24695 14.7412 10.4427 14.7412 12.8341 14.7412C13.0583 14.7412 13.1704 14.7412 13.2636 14.7619C13.6316 14.8436 13.9191 15.1554 13.9945 15.5542C14.0135 15.6552 14.0135 15.7768 14.0135 16.0198V38.398C14.0135 40.9909 14.0135 42.2874 13.8102 43.3645C13.0065 47.6201 9.93901 50.946 6.01383 51.8175C5.02048 52.038 3.82477 52.038 1.4333 52.038C1.20911 52.038 1.09699 52.038 1.00388 52.0173C0.635876 51.9356 0.348303 51.6238 0.27296 51.2248C0.253906 51.124 0.253906 51.0024 0.253906 50.7594V28.3812Z" fill="#131920"/>
<path d="M17.7656 5.84905C17.7656 5.60598 17.7656 5.48444 17.7847 5.38346C17.86 4.98448 18.1476 4.67269 18.5156 4.59097C18.6086 4.57031 18.7207 4.57031 18.9449 4.57031C21.3364 4.57031 22.5322 4.57031 23.5255 4.79084C27.4508 5.66221 30.5183 8.98806 31.3218 13.2438C31.5252 14.3208 31.5252 15.6173 31.5252 18.2103V20.7678C31.5252 23.3608 31.5252 24.6573 31.3218 25.7341C30.5183 29.99 27.4508 33.3158 23.5255 34.1873C22.5322 34.4078 21.3364 34.4079 18.9449 34.4079C18.7207 34.4079 18.6086 34.4078 18.5156 34.3871C18.1476 34.3055 17.86 33.9936 17.7847 33.5946C17.7656 33.4936 17.7656 33.372 17.7656 33.1289V5.84905Z" fill="#131920"/>
</svg>
